<mxfile host="www.draw.io" modified="2019-11-19T21:42:57.798Z" agent="Mozilla/5.0 (Windows NT 10.0; Win64; x64) AppleWebKit/537.36 (KHTML, like Gecko) Chrome/78.0.3904.97 Safari/537.36" etag="Ff1GuI5KCZBfPuAHB-nl" version="12.2.7" type="github" pages="1">
  <diagram name="Page-1" id="2a216829-ef6e-dabb-86c1-c78162f3ba2b">
    <mxGraphModel dx="1831" dy="554" grid="1" gridSize="10" guides="1" tooltips="1" connect="1" arrows="1" fold="1" page="1" pageScale="1" pageWidth="850" pageHeight="1100" background="#ffffff" math="0" shadow="0">
      <root>
        <mxCell id="0"/>
        <mxCell id="1" parent="0"/>
        <mxCell id="R-SclKNgp451T20_MsK3-1" value="" style="endArrow=none;html=1;" edge="1" parent="1">
          <mxGeometry width="50" height="50" relative="1" as="geometry">
            <mxPoint x="80" y="480" as="sourcePoint"/>
            <mxPoint x="80" y="80" as="targetPoint"/>
          </mxGeometry>
        </mxCell>
        <mxCell id="R-SclKNgp451T20_MsK3-2" value="" style="endArrow=none;html=1;" edge="1" parent="1">
          <mxGeometry width="50" height="50" relative="1" as="geometry">
            <mxPoint x="80" y="480" as="sourcePoint"/>
            <mxPoint x="440" y="480" as="targetPoint"/>
          </mxGeometry>
        </mxCell>
        <mxCell id="R-SclKNgp451T20_MsK3-3" value="" style="endArrow=none;html=1;" edge="1" parent="1">
          <mxGeometry width="50" height="50" relative="1" as="geometry">
            <mxPoint x="440" y="480" as="sourcePoint"/>
            <mxPoint x="440" y="80" as="targetPoint"/>
          </mxGeometry>
        </mxCell>
        <mxCell id="R-SclKNgp451T20_MsK3-4" value="" style="endArrow=none;html=1;" edge="1" parent="1">
          <mxGeometry width="50" height="50" relative="1" as="geometry">
            <mxPoint y="80" as="sourcePoint"/>
            <mxPoint x="80" y="80" as="targetPoint"/>
          </mxGeometry>
        </mxCell>
        <mxCell id="R-SclKNgp451T20_MsK3-5" value="" style="endArrow=none;html=1;" edge="1" parent="1">
          <mxGeometry width="50" height="50" relative="1" as="geometry">
            <mxPoint x="-0.5" y="120" as="sourcePoint"/>
            <mxPoint x="79.5" y="120" as="targetPoint"/>
          </mxGeometry>
        </mxCell>
        <mxCell id="R-SclKNgp451T20_MsK3-6" value="" style="endArrow=none;html=1;" edge="1" parent="1">
          <mxGeometry width="50" height="50" relative="1" as="geometry">
            <mxPoint y="160" as="sourcePoint"/>
            <mxPoint x="80" y="160" as="targetPoint"/>
          </mxGeometry>
        </mxCell>
        <mxCell id="R-SclKNgp451T20_MsK3-7" value="" style="endArrow=none;html=1;" edge="1" parent="1">
          <mxGeometry width="50" height="50" relative="1" as="geometry">
            <mxPoint y="240" as="sourcePoint"/>
            <mxPoint x="80" y="240" as="targetPoint"/>
          </mxGeometry>
        </mxCell>
        <mxCell id="R-SclKNgp451T20_MsK3-8" value="" style="endArrow=none;html=1;" edge="1" parent="1">
          <mxGeometry width="50" height="50" relative="1" as="geometry">
            <mxPoint x="-0.5" y="279.99999999999994" as="sourcePoint"/>
            <mxPoint x="79.5" y="279.99999999999994" as="targetPoint"/>
          </mxGeometry>
        </mxCell>
        <mxCell id="R-SclKNgp451T20_MsK3-9" value="" style="endArrow=none;html=1;" edge="1" parent="1">
          <mxGeometry width="50" height="50" relative="1" as="geometry">
            <mxPoint y="320" as="sourcePoint"/>
            <mxPoint x="80" y="320" as="targetPoint"/>
          </mxGeometry>
        </mxCell>
        <mxCell id="R-SclKNgp451T20_MsK3-10" value="" style="endArrow=none;html=1;" edge="1" parent="1">
          <mxGeometry width="50" height="50" relative="1" as="geometry">
            <mxPoint x="440.5" y="80" as="sourcePoint"/>
            <mxPoint x="520.5" y="80" as="targetPoint"/>
          </mxGeometry>
        </mxCell>
        <mxCell id="R-SclKNgp451T20_MsK3-11" value="" style="endArrow=none;html=1;" edge="1" parent="1">
          <mxGeometry width="50" height="50" relative="1" as="geometry">
            <mxPoint x="440" y="120" as="sourcePoint"/>
            <mxPoint x="520" y="120" as="targetPoint"/>
          </mxGeometry>
        </mxCell>
        <mxCell id="R-SclKNgp451T20_MsK3-12" value="" style="endArrow=none;html=1;" edge="1" parent="1">
          <mxGeometry width="50" height="50" relative="1" as="geometry">
            <mxPoint x="440.5" y="160" as="sourcePoint"/>
            <mxPoint x="520.5" y="160" as="targetPoint"/>
          </mxGeometry>
        </mxCell>
        <mxCell id="R-SclKNgp451T20_MsK3-13" value="" style="endArrow=none;html=1;" edge="1" parent="1">
          <mxGeometry width="50" height="50" relative="1" as="geometry">
            <mxPoint x="440.5" y="240" as="sourcePoint"/>
            <mxPoint x="520.5" y="240" as="targetPoint"/>
          </mxGeometry>
        </mxCell>
        <mxCell id="R-SclKNgp451T20_MsK3-14" value="" style="endArrow=none;html=1;" edge="1" parent="1">
          <mxGeometry width="50" height="50" relative="1" as="geometry">
            <mxPoint x="440" y="280" as="sourcePoint"/>
            <mxPoint x="520" y="280" as="targetPoint"/>
          </mxGeometry>
        </mxCell>
        <mxCell id="R-SclKNgp451T20_MsK3-15" value="" style="endArrow=none;html=1;" edge="1" parent="1">
          <mxGeometry width="50" height="50" relative="1" as="geometry">
            <mxPoint x="440.5" y="320" as="sourcePoint"/>
            <mxPoint x="520.5" y="320" as="targetPoint"/>
          </mxGeometry>
        </mxCell>
        <mxCell id="R-SclKNgp451T20_MsK3-16" value="" style="endArrow=none;html=1;" edge="1" parent="1">
          <mxGeometry width="50" height="50" relative="1" as="geometry">
            <mxPoint x="520" y="480" as="sourcePoint"/>
            <mxPoint x="520" y="80" as="targetPoint"/>
          </mxGeometry>
        </mxCell>
        <mxCell id="R-SclKNgp451T20_MsK3-17" value="" style="endArrow=none;html=1;" edge="1" parent="1">
          <mxGeometry width="50" height="50" relative="1" as="geometry">
            <mxPoint x="520" y="480" as="sourcePoint"/>
            <mxPoint x="880" y="480" as="targetPoint"/>
          </mxGeometry>
        </mxCell>
        <mxCell id="R-SclKNgp451T20_MsK3-18" value="" style="endArrow=none;html=1;" edge="1" parent="1">
          <mxGeometry width="50" height="50" relative="1" as="geometry">
            <mxPoint x="880" y="480" as="sourcePoint"/>
            <mxPoint x="880" y="80" as="targetPoint"/>
          </mxGeometry>
        </mxCell>
        <mxCell id="R-SclKNgp451T20_MsK3-19" value="" style="endArrow=none;html=1;" edge="1" parent="1">
          <mxGeometry width="50" height="50" relative="1" as="geometry">
            <mxPoint x="880.5" y="80" as="sourcePoint"/>
            <mxPoint x="960.5" y="80" as="targetPoint"/>
          </mxGeometry>
        </mxCell>
        <mxCell id="R-SclKNgp451T20_MsK3-20" value="" style="endArrow=none;html=1;" edge="1" parent="1">
          <mxGeometry width="50" height="50" relative="1" as="geometry">
            <mxPoint x="880" y="120" as="sourcePoint"/>
            <mxPoint x="960" y="120" as="targetPoint"/>
          </mxGeometry>
        </mxCell>
        <mxCell id="R-SclKNgp451T20_MsK3-21" value="" style="endArrow=none;html=1;" edge="1" parent="1">
          <mxGeometry width="50" height="50" relative="1" as="geometry">
            <mxPoint x="880.5" y="160" as="sourcePoint"/>
            <mxPoint x="960.5" y="160" as="targetPoint"/>
          </mxGeometry>
        </mxCell>
        <mxCell id="R-SclKNgp451T20_MsK3-22" value="" style="endArrow=none;html=1;" edge="1" parent="1">
          <mxGeometry width="50" height="50" relative="1" as="geometry">
            <mxPoint x="880.5" y="240" as="sourcePoint"/>
            <mxPoint x="960.5" y="240" as="targetPoint"/>
          </mxGeometry>
        </mxCell>
        <mxCell id="R-SclKNgp451T20_MsK3-23" value="" style="endArrow=none;html=1;" edge="1" parent="1">
          <mxGeometry width="50" height="50" relative="1" as="geometry">
            <mxPoint x="880" y="280" as="sourcePoint"/>
            <mxPoint x="960" y="280" as="targetPoint"/>
          </mxGeometry>
        </mxCell>
        <mxCell id="R-SclKNgp451T20_MsK3-24" value="" style="endArrow=none;html=1;" edge="1" parent="1">
          <mxGeometry width="50" height="50" relative="1" as="geometry">
            <mxPoint x="880.5" y="320" as="sourcePoint"/>
            <mxPoint x="960.5" y="320" as="targetPoint"/>
          </mxGeometry>
        </mxCell>
        <mxCell id="R-SclKNgp451T20_MsK3-25" value="1" style="text;html=1;resizable=0;points=[];autosize=1;align=left;verticalAlign=top;spacingTop=-4;" vertex="1" parent="1">
          <mxGeometry y="60" width="20" height="20" as="geometry"/>
        </mxCell>
        <mxCell id="R-SclKNgp451T20_MsK3-26" value="2" style="text;html=1;resizable=0;points=[];autosize=1;align=left;verticalAlign=top;spacingTop=-4;" vertex="1" parent="1">
          <mxGeometry y="100" width="20" height="20" as="geometry"/>
        </mxCell>
        <mxCell id="R-SclKNgp451T20_MsK3-27" value="3" style="text;html=1;resizable=0;points=[];autosize=1;align=left;verticalAlign=top;spacingTop=-4;" vertex="1" parent="1">
          <mxGeometry x="-0.5" y="140" width="20" height="20" as="geometry"/>
        </mxCell>
        <mxCell id="R-SclKNgp451T20_MsK3-28" value="4" style="text;html=1;resizable=0;points=[];autosize=1;align=left;verticalAlign=top;spacingTop=-4;" vertex="1" parent="1">
          <mxGeometry x="440" y="60" width="20" height="20" as="geometry"/>
        </mxCell>
        <mxCell id="R-SclKNgp451T20_MsK3-29" value="5" style="text;html=1;resizable=0;points=[];autosize=1;align=left;verticalAlign=top;spacingTop=-4;" vertex="1" parent="1">
          <mxGeometry x="440" y="100" width="20" height="20" as="geometry"/>
        </mxCell>
        <mxCell id="R-SclKNgp451T20_MsK3-30" value="6" style="text;html=1;resizable=0;points=[];autosize=1;align=left;verticalAlign=top;spacingTop=-4;" vertex="1" parent="1">
          <mxGeometry x="440" y="140" width="20" height="20" as="geometry"/>
        </mxCell>
        <mxCell id="R-SclKNgp451T20_MsK3-31" value="10" style="text;html=1;resizable=0;points=[];autosize=1;align=left;verticalAlign=top;spacingTop=-4;" vertex="1" parent="1">
          <mxGeometry x="440" y="220" width="30" height="20" as="geometry"/>
        </mxCell>
        <mxCell id="R-SclKNgp451T20_MsK3-32" value="11" style="text;html=1;resizable=0;points=[];autosize=1;align=left;verticalAlign=top;spacingTop=-4;" vertex="1" parent="1">
          <mxGeometry x="440" y="260" width="30" height="20" as="geometry"/>
        </mxCell>
        <mxCell id="R-SclKNgp451T20_MsK3-33" value="12" style="text;html=1;resizable=0;points=[];autosize=1;align=left;verticalAlign=top;spacingTop=-4;" vertex="1" parent="1">
          <mxGeometry x="440" y="300" width="30" height="20" as="geometry"/>
        </mxCell>
        <mxCell id="R-SclKNgp451T20_MsK3-34" value="7" style="text;html=1;resizable=0;points=[];autosize=1;align=left;verticalAlign=top;spacingTop=-4;" vertex="1" parent="1">
          <mxGeometry y="220" width="20" height="20" as="geometry"/>
        </mxCell>
        <mxCell id="R-SclKNgp451T20_MsK3-35" value="8" style="text;html=1;resizable=0;points=[];autosize=1;align=left;verticalAlign=top;spacingTop=-4;" vertex="1" parent="1">
          <mxGeometry x="-0.5" y="260" width="20" height="20" as="geometry"/>
        </mxCell>
        <mxCell id="R-SclKNgp451T20_MsK3-36" value="9" style="text;html=1;resizable=0;points=[];autosize=1;align=left;verticalAlign=top;spacingTop=-4;" vertex="1" parent="1">
          <mxGeometry y="300" width="20" height="20" as="geometry"/>
        </mxCell>
        <mxCell id="R-SclKNgp451T20_MsK3-37" value="1" style="text;html=1;resizable=0;points=[];autosize=1;align=left;verticalAlign=top;spacingTop=-4;" vertex="1" parent="1">
          <mxGeometry x="940.5" y="60" width="20" height="20" as="geometry"/>
        </mxCell>
        <mxCell id="R-SclKNgp451T20_MsK3-38" value="2" style="text;html=1;resizable=0;points=[];autosize=1;align=left;verticalAlign=top;spacingTop=-4;" vertex="1" parent="1">
          <mxGeometry x="940.5" y="100" width="20" height="20" as="geometry"/>
        </mxCell>
        <mxCell id="R-SclKNgp451T20_MsK3-39" value="3" style="text;html=1;resizable=0;points=[];autosize=1;align=left;verticalAlign=top;spacingTop=-4;" vertex="1" parent="1">
          <mxGeometry x="940" y="140" width="20" height="20" as="geometry"/>
        </mxCell>
        <mxCell id="R-SclKNgp451T20_MsK3-40" value="7" style="text;html=1;resizable=0;points=[];autosize=1;align=left;verticalAlign=top;spacingTop=-4;" vertex="1" parent="1">
          <mxGeometry x="940.5" y="220" width="20" height="20" as="geometry"/>
        </mxCell>
        <mxCell id="R-SclKNgp451T20_MsK3-41" value="8" style="text;html=1;resizable=0;points=[];autosize=1;align=left;verticalAlign=top;spacingTop=-4;" vertex="1" parent="1">
          <mxGeometry x="940" y="260" width="20" height="20" as="geometry"/>
        </mxCell>
        <mxCell id="R-SclKNgp451T20_MsK3-42" value="9" style="text;html=1;resizable=0;points=[];autosize=1;align=left;verticalAlign=top;spacingTop=-4;" vertex="1" parent="1">
          <mxGeometry x="940.5" y="300" width="20" height="20" as="geometry"/>
        </mxCell>
      </root>
    </mxGraphModel>
  </diagram>
</mxfile>
